<svg width="1600" height="1000" viewBox="0 0 1600 1000" fill="none" xmlns="http://www.w3.org/2000/svg">
  <rect width="1600" height="1000" fill="#CBC6BD"/>
  <rect width="1600" height="1000" fill="url(#paint0_linear_1_1)"/>
  <circle cx="330" cy="250" r="214" fill="url(#paint1_radial_1_1)"/>
  <circle cx="1188" cy="710" r="308" fill="url(#paint2_radial_1_1)"/>
  <rect x="132" y="132" width="1336" height="736" rx="40" fill="url(#paint3_linear_1_1)" fill-opacity="0.14"/>
  <path d="M164 570C352 430 510 390 686 420C856 448 984 592 1168 626C1280 648 1368 624 1436 580" stroke="white" stroke-opacity="0.16" stroke-width="2"/>
  <path d="M226 292C460 334 684 372 894 340C1080 312 1256 226 1380 164" stroke="black" stroke-opacity="0.14" stroke-width="2"/>
  <defs>
    <linearGradient id="paint0_linear_1_1" x1="1408" y1="1010" x2="202" y2="78" gradientUnits="userSpaceOnUse">
      <stop stop-color="#0B0D0F"/>
      <stop offset="0.48" stop-color="#666056"/>
      <stop offset="1" stop-color="#ECE6DC"/>
    </linearGradient>
    <radialGradient id="paint1_radial_1_1" cx="0" cy="0" r="1" gradientUnits="userSpaceOnUse" gradientTransform="translate(320 252) rotate(90) scale(236)">
      <stop stop-color="#F2EEE6"/>
      <stop offset="1" stop-color="#F2EEE6" stop-opacity="0"/>
    </radialGradient>
    <radialGradient id="paint2_radial_1_1" cx="0" cy="0" r="1" gradientUnits="userSpaceOnUse" gradientTransform="translate(1180 706) rotate(90) scale(332)">
      <stop stop-color="#151515"/>
      <stop offset="1" stop-color="#151515" stop-opacity="0"/>
    </radialGradient>
    <linearGradient id="paint3_linear_1_1" x1="132" y1="132" x2="1468" y2="868" gradientUnits="userSpaceOnUse">
      <stop stop-color="white"/>
      <stop offset="1" stop-color="#F0ECE4" stop-opacity="0"/>
    </linearGradient>
  </defs>
</svg>
