<svg width="1600" height="1000" viewBox="0 0 1600 1000" fill="none" xmlns="http://www.w3.org/2000/svg">
  <rect width="1600" height="1000" fill="#D6D0C5"/>
  <rect width="1600" height="1000" fill="url(#paint0_linear_1_0)"/>
  <circle cx="1222" cy="262" r="286" fill="url(#paint1_radial_1_0)"/>
  <circle cx="436" cy="736" r="332" fill="url(#paint2_radial_1_0)"/>
  <rect x="104" y="104" width="1392" height="792" rx="44" fill="url(#paint3_linear_1_0)" fill-opacity="0.18"/>
  <path d="M180 330C352 286 498 286 644 334C782 378 924 456 1092 456C1232 456 1334 408 1418 324" stroke="white" stroke-opacity="0.18" stroke-width="2"/>
  <path d="M268 612C466 550 646 548 820 610C956 658 1110 726 1328 692" stroke="black" stroke-opacity="0.15" stroke-width="2"/>
  <defs>
    <linearGradient id="paint0_linear_1_0" x1="1528" y1="936" x2="144" y2="78" gradientUnits="userSpaceOnUse">
      <stop stop-color="#24282D"/>
      <stop offset="0.48" stop-color="#8A8277"/>
      <stop offset="1" stop-color="#EEE9DF"/>
    </linearGradient>
    <radialGradient id="paint1_radial_1_0" cx="0" cy="0" r="1" gradientUnits="userSpaceOnUse" gradientTransform="translate(1222 262) rotate(90) scale(310)">
      <stop stop-color="#F7F4ED"/>
      <stop offset="1" stop-color="#F5F2EC" stop-opacity="0"/>
    </radialGradient>
    <radialGradient id="paint2_radial_1_0" cx="0" cy="0" r="1" gradientUnits="userSpaceOnUse" gradientTransform="translate(400 722) rotate(90) scale(360)">
      <stop stop-color="#242628"/>
      <stop offset="1" stop-color="#2B2B29" stop-opacity="0"/>
    </radialGradient>
    <linearGradient id="paint3_linear_1_0" x1="104" y1="104" x2="1496" y2="896" gradientUnits="userSpaceOnUse">
      <stop stop-color="white"/>
      <stop offset="1" stop-color="#F3EFE8" stop-opacity="0"/>
    </linearGradient>
  </defs>
</svg>
