<svg width="1600" height="1000" viewBox="0 0 1600 1000" fill="none" xmlns="http://www.w3.org/2000/svg">
  <rect width="1600" height="1000" fill="#E3DED4"/>
  <rect width="1600" height="1000" fill="url(#paint0_linear_1_4)"/>
  <circle cx="1274" cy="262" r="270" fill="url(#paint1_radial_1_4)"/>
  <circle cx="302" cy="780" r="248" fill="url(#paint2_radial_1_4)"/>
  <rect x="116" y="116" width="1368" height="768" rx="44" fill="url(#paint3_linear_1_4)" fill-opacity="0.18"/>
  <path d="M166 328H1432" stroke="white" stroke-opacity="0.12" stroke-width="2"/>
  <path d="M166 704C376 576 560 520 778 544C974 565 1154 658 1432 650" stroke="white" stroke-opacity="0.16" stroke-width="2"/>
  <path d="M250 250C472 328 670 358 902 320C1080 290 1244 212 1364 158" stroke="black" stroke-opacity="0.12" stroke-width="2"/>
  <defs>
    <linearGradient id="paint0_linear_1_4" x1="1492" y1="910" x2="96" y2="108" gradientUnits="userSpaceOnUse">
      <stop stop-color="#26282A"/>
      <stop offset="0.52" stop-color="#8B857A"/>
      <stop offset="1" stop-color="#F4F0E8"/>
    </linearGradient>
    <radialGradient id="paint1_radial_1_4" cx="0" cy="0" r="1" gradientUnits="userSpaceOnUse" gradientTransform="translate(1274 262) rotate(90) scale(294)">
      <stop stop-color="#FBF9F4"/>
      <stop offset="1" stop-color="#FBF9F4" stop-opacity="0"/>
    </radialGradient>
    <radialGradient id="paint2_radial_1_4" cx="0" cy="0" r="1" gradientUnits="userSpaceOnUse" gradientTransform="translate(286 790) rotate(90) scale(266)">
      <stop stop-color="#1B1B1A"/>
      <stop offset="1" stop-color="#1B1B1A" stop-opacity="0"/>
    </radialGradient>
    <linearGradient id="paint3_linear_1_4" x1="116" y1="116" x2="1484" y2="884" gradientUnits="userSpaceOnUse">
      <stop stop-color="white"/>
      <stop offset="1" stop-color="#F6F2EA" stop-opacity="0"/>
    </linearGradient>
  </defs>
</svg>
