<svg width="1600" height="1000" viewBox="0 0 1600 1000" fill="none" xmlns="http://www.w3.org/2000/svg">
  <rect width="1600" height="1000" fill="#D8D3C9"/>
  <rect width="1600" height="1000" fill="url(#paint0_linear_1_5)"/>
  <circle cx="1228" cy="208" r="228" fill="url(#paint1_radial_1_5)"/>
  <circle cx="330" cy="760" r="278" fill="url(#paint2_radial_1_5)"/>
  <rect x="124" y="124" width="1352" height="752" rx="42" fill="url(#paint3_linear_1_5)" fill-opacity="0.16"/>
  <path d="M186 642C350 554 512 524 680 558C838 590 974 688 1164 696C1276 701 1366 679 1418 650" stroke="white" stroke-opacity="0.16" stroke-width="2"/>
  <path d="M222 282C428 340 636 356 824 326C1042 292 1200 194 1350 126" stroke="black" stroke-opacity="0.13" stroke-width="2"/>
  <defs>
    <linearGradient id="paint0_linear_1_5" x1="1502" y1="984" x2="116" y2="88" gradientUnits="userSpaceOnUse">
      <stop stop-color="#232527"/>
      <stop offset="0.5" stop-color="#7E776D"/>
      <stop offset="1" stop-color="#F1EDE4"/>
    </linearGradient>
    <radialGradient id="paint1_radial_1_5" cx="0" cy="0" r="1" gradientUnits="userSpaceOnUse" gradientTransform="translate(1228 208) rotate(90) scale(248)">
      <stop stop-color="#F8F5EE"/>
      <stop offset="1" stop-color="#F8F5EE" stop-opacity="0"/>
    </radialGradient>
    <radialGradient id="paint2_radial_1_5" cx="0" cy="0" r="1" gradientUnits="userSpaceOnUse" gradientTransform="translate(330 760) rotate(90) scale(296)">
      <stop stop-color="#232321"/>
      <stop offset="1" stop-color="#232321" stop-opacity="0"/>
    </radialGradient>
    <linearGradient id="paint3_linear_1_5" x1="124" y1="124" x2="1476" y2="876" gradientUnits="userSpaceOnUse">
      <stop stop-color="white"/>
      <stop offset="1" stop-color="#F6F2EA" stop-opacity="0"/>
    </linearGradient>
  </defs>
</svg>
