<?xml version="1.0" encoding="UTF-8"?>
<svg id="Layer_2" data-name="Layer 2" xmlns="http://www.w3.org/2000/svg" viewBox="0 0 358.09 316.22">
  <defs>
    <style>
      .cls-1 {
        fill: #1b1b1b;
      }
    </style>
  </defs>
  <g id="Layer_1-2" data-name="Layer 1">
    <g>
      <path class="cls-1" d="M111.21,134.56L20.52,210.64h0L0,316.22h104.45l20.35-104.7.17-.88,11.85-60.98c2.84-14.59-14.23-24.65-25.62-15.09Z"/>
      <path class="cls-1" d="M271.25,0l-.02.12-92.64,77.72c-11.28,9.46-4.59,27.86,10.14,27.86h42.85c9.92,0,17.38,9.05,15.48,18.78l-16.75,86.16-.1.53-20.42,105.05h105.33l20.42-105.05.1-.53,20.42-105.04h0v-.02s.05-.25.05-.25C367.41,47.16,329.42,0,271.25,0Z"/>
    </g>
  </g>
</svg>